<?xml version="1.0" encoding="UTF-8"?>
<svg id="Layer_1" data-name="Layer 1" xmlns="http://www.w3.org/2000/svg" viewBox="0 0 1016.87 972.01">
  <defs>
    <style>
      .cls-1 {
        fill: #38bba1;
      }
    </style>
  </defs>
  <path class="cls-1" d="M99.5,416.99l5.75,16.97,21.86,52.91,24.73,51.19,27.9,49.18,30.48,47.74,33.36,45.44,35.95,43.71,38.54,41.41,41.12,39.4,43.13,37.1,45.44,34.8c19.85,14.09,39.69,27.6,60.39,40.55,12.94-8.05,25.31-16.39,37.96-24.73,7.48-5.18,14.95-10.35,22.43-15.82l45.72-34.8,43.43-37.1,40.83-39.4,38.54-41.41,35.95-43.71,33.36-45.44,30.48-47.74,27.9-49.18,24.73-51.19,21.86-52.91,6.04-17.25c-113.31-63.84-241.56-98.35-371.26-103.82-154.71-6.61-311.73,28.18-446.6,104.1ZM565.37,435.1c9.49,4.31,19.27,8.05,28.47,12.65,4.6,2.01,8.34,5.18,12.36,8.05,2.88,1.73,5.47,3.45,8.05,5.46,2.59,1.72,4.6,3.74,7.19,5.75,2.01,1.44,4.31,2.3,6.04,3.74,6.04,5.18,11.79,10.35,17.25,15.82,2.88,2.88,4.6,6.61,7.19,9.78.29.58,1.15,1.15,1.73,1.73,6.33,3.74,8.34,7.48,6.04,14.38-1.73,5.18-.58,10.07-.58,14.95,0,4.31-.29,8.91-.29,13.51-.29,1.73,0,3.74.86,5.46,1.15,2.59,2.88,3.45,5.75,2.01,3.16-1.73,6.62-3.16,10.07-4.6.86-.29,2.3.29,3.45.29,1.15.29,2.3,1.15,3.17.86,6.04-2.59,7.48,2.02,10.06,5.75,4.88,6.9,2.87,14.95,3.74,22.43.57,6.33,3.16,9.2,9.49,10.07.57.29,1.15.29,2.58.58-2.58,5.47.86,7.19,4.6,9.49,5.18,3.45,9.49,7.76,14.67,11.22,3.17,2.3,7.19,3.16,10.64,4.89,4.6,1.72,9.2,3.45,13.23,5.46,2.59,1.44,4.61,3.74,2.59,6.9-.86,1.44-2.01,2.88-2.01,4.31,0,11.5-9.49,16.11-16.39,22.72-5.75,5.47-12.94,9.49-19.26,14.95-5.47,4.89-10.64,10.64-15.82,15.82-.87.86-2.02,1.73-3.17,2.3-7.76,3.16-15.53,6.33-23,10.07-6.61,3.45-12.94,7.77-19.55,11.5-4.89,2.59-10.35,4.89-15.82,6.9-3.16,1.15-6.32,2.88-9.78,2.88-4.6,0-9.49-.29-13.8-1.73-8.92-3.45-19.27-1.44-25.6,5.75-1.15,1.14-2.87,2.01-4.03,3.16-2.59,2.58-5.18,4.89-7.19,7.77-2.88,3.74-6.62,5.46-10.93,6.9-6.33,2.3-12.36,4.89-16.39,10.64-1.44,2.01-3.16,3.74-4.89,5.18-4.6,3.45-9.77,5.46-15.53,6.62-3.45.57-6.32,1.72-7.19,5.75-.29,1.15-1.44,1.73-2.3,2.59-2.01,2.3-4.02,4.6-6.04,6.9-.87.86-1.44,2.88-2.59,3.45-3.16,1.43-3.16,3.74-2.87,6.61,1.43,6.33-.86,10.93-6.04,15.53-3.45,3.17-5.18,8.34-6.33,12.94-1.15,4.88-1.44,6.04-6.62,6.9-1.15,0-2.59,1.44-3.16,2.88-2.88,7.19-10.93,14.67-19.27,17.25-.29-1.44-.29-2.87-.86-4.03-.86-2.3-1.44-5.46-3.16-6.61-5.75-4.31-10.93-9.49-18.41-11.22-4.89-1.15-9.49-4.89-13.51-8.63-5.46-4.89-12.08-4.6-18.41-6.61-4.31-1.73-8.91-3.45-12.36-6.62-2.59-2.3-3.16-6.61-4.89-9.78-2.01-3.74-4.32-7.19-6.04-10.93-2.59-4.89-2.88-10.06-.86-15.53.86-2.87.29-6.61,1.15-10.07,1.73-7.47,2.3-15.24,3.16-23,.86-9.78.58-19.84,2.88-29.33,2.02-9.78-2.59-16.97-6.61-24.44-.29-.86-1.15-2.3-.86-2.88,2.01-3.74-.58-6.04-2.02-8.63-2.59-4.89-4.03-10.35-2.88-15.82.58-2.88,0-4.6-3.45-4.03-1.73.29-3.45-.58-4.31-.86-1.44-4.02-2.88-6.9-3.74-9.78-.57-1.15-.57-2.59-.57-4.03s.28-3.16,0-4.6c-1.73-6.9-3.45-13.52-5.47-20.13-1.73-4.6-3.45-9.2-6.33-12.94-2.3-2.59-6.33-4.31-9.78-5.46-4.02-.86-4.31-3.16-3.45-5.75,1.73-4.6-.86-6.9-3.45-9.49-.87-1.15-2.02-2.02-2.3-3.16-1.44-3.16-2.59-6.62-4.03-10.07.87-3.16,2.59-7.19,2.59-10.93,0-5.46,2.59-8.63,6.62-11.5,3.16-2.3,5.75-5.18,8.34-8.05,2.87-3.16,5.46-6.33,8.05-9.78,3.16-3.74,7.19-4.03,11.5-3.45,4.89.57,6.62-.58,7.19-4.89,0-1.15.57-2.01.86-2.88,1.72-3.16,3.16-6.04,4.89-8.92.86-1.73,2.3-2.88,3.45-4.31.57-.58,1.44-1.44,1.15-1.73-.86-5.75,3.74-7.48,6.62-10.64,1.15-1.44,2.3-3.16,3.45-4.6,1.15-1.44,2.59-3.16,4.03-3.74,4.03-1.44,5.75-4.03,6.33-8.05.29-3.16,1.15-6.61.86-9.49-.58-2.88-2.01-6.04-3.74-8.34-4.89-6.61-10.64-12.65-14.67-19.84-7.19-13.8-10.64-28.47-7.77-44.29,1.44-8.63,7.19-14.95,14.38-14.38,5.75.29,11.21,2.59,16.97,4.03,3.45,1.15,7.48,1.73,10.64,3.45,5.18,3.16,12.36,4.31,13.52,12.08,0,1.44,1.72,2.88,2.87,3.45,5.75,2.88,11.5,5.75,17.26,8.63,4.31,2.01,8.05,4.03,10.93,8.34,1.72,2.01,5.18,2.3,7.47,3.74,2.02,1.15,4.03,2.3,5.46,4.03,2.59,2.3,5.17,3.16,8.05,1.44,4.02-2.59,7.48-2.01,12.07-.57,8.06,2.87,16.68,4.31,25.02,7.48,4.6,1.73,9.49,3.74,14.09,6.04,2.88,1.44,6.04,2.88,9.21,4.31,3.45,1.73,6.61,3.16,10.06,4.6Z"/>
  <path class="cls-1" d="M978.91,141.2l-27.9-18.41-28.75-16.97-29.62-15.53-29.91-14.38-30.48-13.23-30.77-12.08-31.63-10.64-31.63-9.49-32.21-8.05-32.5-6.9-32.49-5.75-33.07-4.31-32.79-3.16-33.36-1.73-33.07-.58h-.58l-32.5.58-32.78,1.73-33.07,3.16-33.07,4.31-32.5,5.75-32.5,6.9-32.21,8.05-31.92,9.49-31.63,10.64-30.77,12.08-30.77,13.23-29.91,14.38-29.62,15.53-28.76,16.97-28.18,18.41L0,168.23l4.31,44.29,4.03,31.06,5.18,30.77,5.75,30.19,6.9,30.2,7.77,29.33,8.34,29.33,19.55,56.94,23.01,55.5,25.88,53.78,29.33,51.76,31.92,49.75,35.09,47.74,37.67,45.72,40.26,43.43,42.85,41.41,45.44,38.82,47.45,36.23,49.75,33.94,37.67,23.58,37.67-23.58,25.31-16.68,48.89-35.09,46.3-37.67,44.29-39.97,41.69-42.27,38.83-44.57,36.52-46.88,33.36-48.89,30.77-50.61,27.61-52.91,24.44-54.35,20.99-56.36,18.12-58.09,7.48-29.33,6.9-30.2,5.75-30.19,5.18-30.77,4.02-31.06,4.61-44.29-37.96-27.03ZM508.14,944.68C236.67,781.06,52.63,508.15,24.44,179.16,164.21,75.35,336.46,23.29,508.14,23.01c172.55,0,344.8,52.05,484.28,156.15-28.47,328.98-212.52,601.9-484.28,765.52Z"/>
  <path class="cls-1" d="M724.69,277.51s-.07-.01-.1-.02l9.01-33.34-37.38-9.78-9.3,34.91c-7.72-1.53-15.46-3.01-23.2-4.43-13.8-2.3-27.32-4.31-41.12-6.04-13.33-1.61-26.65-2.99-39.98-4.16l2.61-164.83c22.84,2.48,45.58,5.62,68.43,9.67l28.47,6.04c15.39,3.62,30.52,7.61,45.45,11.96l-7.49,28.02c3.74.86,7.48,2.01,11.5,2.88l25.88,6.9,16.68-62.4h-.02s.31-1.15.31-1.15c-72.76-25.02-149.54-39.11-227.19-44l-.57,38.53s.04,0,.06,0l-2.63,165.64h-.02l-.86,38.53c59.53,2.88,116.18,10.64,171.39,23.87l10.06-36.81Z"/>
  <path class="cls-1" d="M131.14,333.01c-5.18,2.3-10.35,4.6-15.24,6.9-4.08-15.7-7.93-31.45-11.46-47.26,37.18-21.85,76.33-40.25,116.87-55.3l15.01,56.04c-6.98,2.14-13.96,4.26-20.93,6.55l8.92,37.38c19.55-6.61,39.11-12.65,58.95-17.83l-9.78-36.81s-.08.02-.12.04l-49.05-183.22-.09.07-.48-1.79c-17.54,6.61-34.8,13.8-51.76,21.57l9.2,38.25c5.54-2.59,11.17-5.01,16.77-7.48l12.84,47.93c-39.67,14.47-78.13,32.03-114.8,52.72-2.5-13.83-4.72-27.72-6.54-41.7,3.45-2.3,6.9-4.6,10.07-6.61l-9.49-39.4c-13.8,8.63-27.61,17.54-41.12,27.32,6.61,65.28,20.42,126.25,37.96,189.22l5.18,15.24,2.87-1.73c15.24-7.77,30.2-15.24,45.15-22.14l-8.91-37.96Z"/>
  <path class="cls-1" d="M743.53,282.15s-.1-.03-.14-.04l-9.78,37.1c63.84,16.68,125.96,41.13,188.65,73.91l2.58,1.73c22.43-65.57,35.95-135.74,43.13-204.47-13.51-9.49-27.32-18.69-41.12-27.32l-10.06,39.11c3.45,2.3,6.9,4.6,10.35,6.9-5.47,44.29-13.81,88-25.6,131.14-13.41-6.66-27.15-12.8-41.06-18.58l42.21-168.06-34.51-20.99-44.18,174.92c-14.37-5.18-28.86-10-43.38-14.54l38.23-142.65c5.54,2.39,11.06,4.81,16.55,7.28l9.77-37.96c-17.25-7.77-34.8-14.95-52.34-21.57l-10.07,37.67s.03.01.05.02l-39.3,146.4Z"/>
  <path class="cls-1" d="M297.64,74.48l10.07,37.38s.03,0,.05-.01l41.28,153.83c-.07.02-.14.02-.21.04l10.06,37.1c37.67-6.33,76.5-10.64,116.76-12.94l33.07-.57c5.18,0,10.06,0,15.24.29l.28-18.69h0l1.15-72.47-11.5-11.5c.1,0,.19,0,.29,0l-16.39-16.1,24.73-24.73,3.74-3.74.92-56.96c.08.01.15.01.23.03l.57-38.54c-6.33-.29-12.94-.57-19.26-.57l-31.35.57c-61.83,3.45-121.64,12.36-179.73,27.61ZM486.03,251.34c-8.62.22-17.24.57-25.91,1.15-24.35,1.63-48.56,4.15-72.83,7.39l-16.45-61.61c38.28-6.3,77.13-9.98,116.2-11l-1.01,64.08ZM487.69,146.36c-42.73,1.04-85.41,5.03-127.46,12.12l-14.84-55.59c12.44-2.63,24.98-4.98,37.66-7.12,27.6-4.31,54.93-7.48,82.25-9.78,7.82-.47,15.59-.75,23.36-.93l-.97,61.3Z"/>
  <path class="cls-1" d="M243.57,96.91l53.78,200.44s.01,0,.02,0l4.58,17.26c12.65-2.88,25.02-5.75,37.96-8.34l-10.06-36.81s-.04,0-.06.01l-40.89-152.68s.07-.02.11-.03l-10.06-37.1c-12.36,3.74-24.73,7.48-36.81,11.5l1.54,5.72-.11.03Z"/>
</svg>